<svg class="overlogo" viewBox="0 5 448 49">
  <path d="M2.609,44.391c-0.417,-0.227 -0.803,-0.514 -1.145,-0.855c-0.937,-0.938 -1.464,-2.21 -1.464,-3.536c0,-5.549 0,-14.451 0,-20c0,-1.326 0.527,-2.598 1.464,-3.536c0.938,-0.937 2.21,-1.464 3.536,-1.464c7.484,0 22.516,0 30,0l4,7c0,5.549 0,12.451 0,18c0,1.326 -0.527,2.598 -1.464,3.536c-0.938,0.937 -2.21,1.464 -3.536,1.464l-28,0l8,-8l15,0l0,-14l-19,0l0,14l-7.391,7.391Z"/>
  <path d="M37.5,15l11,0l11,19.757l11,-19.757l11,0l-17.5,30l-9,0l-17.5,-30Z"/>
  <path d="M80,22l4,-7c9.227,0 27,0 27,0l0,8l-21,0l0,3l14,0l0,8l-14,0l0,3l21,0l0,8l-31,0c0,0 0,-14 0,-23Z"/>
  <path d="M139,34l15,11l-12,0l-15,-11l0,-7l12,0l0,-4l-16,0l0,22l-10,0l0,-30c0,0 20.328,0 30,0c2.761,0 5,2.239 5,5c0,2.778 0,6.222 0,9c0,2.761 -2.239,5 -5,5c-2.072,0 -4,0 -4,0Z"/>
  <path d="M188,25l-10,0l0,-2l-18,0l0,14l18,0l0,-2l10,0c0,0 0,2.5 0,5c0,2.761 -2.239,5 -5,5c-7.28,0 -17.72,0 -25,0l-8,-6c0,-5.549 0,-13.451 0,-19c0,-1.326 0.527,-2.598 1.464,-3.536c0.938,-0.937 2.21,-1.464 3.536,-1.464c7.28,0 20.72,0 28,0c2.761,0 5,2.239 5,5c0,2.5 0,5 0,5Z"/>
  <path d="M192.609,44.391c-0.417,-0.227 -0.803,-0.514 -1.145,-0.855c-0.937,-0.938 -1.464,-2.21 -1.464,-3.536c0,-5.549 0,-14.451 0,-20c0,-1.326 0.527,-2.598 1.464,-3.536c0.938,-0.937 2.21,-1.464 3.536,-1.464c5.44,0 20.985,0 29.07,0c1.33,0 2.605,0.53 3.543,1.472c0.939,0.942 1.463,2.219 1.457,3.549c-0.027,6.156 -0.07,16.234 -0.07,19.979c0,1.326 -0.527,2.598 -1.464,3.536c-0.938,0.937 -2.21,1.464 -3.536,1.464l-28,0l8,-8l15,0l0,-14l-19,0l0,14l-7.391,7.391Z"/>
  <path d="M269,15l0,30c0,0 -22.759,0 -33.094,0c-1.326,0 -2.598,-0.527 -3.535,-1.464c-0.938,-0.938 -1.465,-2.21 -1.465,-3.536c0,-8.534 0,-25 0,-25l10.094,0l0,22l17.906,0l0,-22l10.094,0Z"/>
  <path d="M281,26.643l0,18.357l-10,0l0,-30l10,0l17,18.357l0,-18.357l10,0l0,30l-10,0l-17,-18.357Z"/>
  <path d="M345,15l-3,8l-9,0l0,22l-10,0l0,-22l-13,0l0,-8l35,0Z"/>
  <path d="M344,23l3,-8c9.227,0 28,0 28,0l0,8l-21,0l0,3l14,0l0,8l-14,0l0,3l21,0l0,8l-31,0c0,0 0,-13 0,-22Z"/>
  <path d="M403,34l15,11l-12,0l-15,-11l0,-7l12,0l0,-4l-16,0l0,22l-10,0l0,-30c0,0 20.328,0 30,0c2.761,0 5,2.239 5,5c0,2.778 0,6.222 0,9c0,2.761 -2.239,5 -5,5c-2.072,0 -4,0 -4,0Z"/>
  <path d="M413,38l25,0l0,-4c0,0 -11.967,0 -19,0c-2.761,0 -5,-2.239 -5,-5c0,-2.778 0,-6.222 0,-9c0,-2.761 2.239,-5 5,-5c9.451,0 29,0 29,0l0,7l-24,0l0,4c0,0 11.967,0 19,0c2.761,0 5,2.239 5,5c0,2.778 0,6.222 0,9c0,2.761 -2.239,5 -5,5c-7.553,0 -21,0 -21,0l-9,-7Z"/>
  <path class="overlogo__triangle" d="M59.5,5l8,10l-16,0l8,-10Z"/>
</svg>
